<mxfile host="app.diagrams.net" modified="2023-02-07T07:37:00.353Z" agent="5.0 (Macintosh; Intel Mac OS X 10_15_7) AppleWebKit/537.36 (KHTML, like Gecko) Chrome/109.0.0.0 Safari/537.36" etag="FeC4RwhCT3qQTfbRcYt9" version="20.8.17" type="github">
  <diagram id="uEitK5Yw8WxjuDZyDiQq" name="Page-1">
    <mxGraphModel dx="954" dy="515" grid="1" gridSize="10" guides="1" tooltips="1" connect="1" arrows="1" fold="1" page="1" pageScale="1" pageWidth="827" pageHeight="1169" math="0" shadow="0">
      <root>
        <mxCell id="0" />
        <mxCell id="1" parent="0" />
        <mxCell id="ndcacQQV9o8B6pBk4h6F-7" value="" style="edgeStyle=orthogonalEdgeStyle;rounded=0;orthogonalLoop=1;jettySize=auto;html=1;" edge="1" parent="1" target="ndcacQQV9o8B6pBk4h6F-5">
          <mxGeometry relative="1" as="geometry">
            <mxPoint x="163.75" y="240" as="sourcePoint" />
          </mxGeometry>
        </mxCell>
        <mxCell id="ndcacQQV9o8B6pBk4h6F-10" value="" style="edgeStyle=orthogonalEdgeStyle;rounded=0;orthogonalLoop=1;jettySize=auto;html=1;" edge="1" parent="1" target="ndcacQQV9o8B6pBk4h6F-8">
          <mxGeometry relative="1" as="geometry">
            <mxPoint x="134" y="200" as="sourcePoint" />
          </mxGeometry>
        </mxCell>
        <mxCell id="ndcacQQV9o8B6pBk4h6F-31" value="" style="edgeStyle=orthogonalEdgeStyle;rounded=0;orthogonalLoop=1;jettySize=auto;html=1;fontSize=12;" edge="1" parent="1" target="ndcacQQV9o8B6pBk4h6F-29">
          <mxGeometry relative="1" as="geometry">
            <mxPoint x="134" y="300" as="sourcePoint" />
          </mxGeometry>
        </mxCell>
        <mxCell id="ndcacQQV9o8B6pBk4h6F-15" value="" style="edgeStyle=orthogonalEdgeStyle;rounded=0;orthogonalLoop=1;jettySize=auto;html=1;" edge="1" parent="1" source="ndcacQQV9o8B6pBk4h6F-5" target="ndcacQQV9o8B6pBk4h6F-14">
          <mxGeometry relative="1" as="geometry" />
        </mxCell>
        <mxCell id="ndcacQQV9o8B6pBk4h6F-21" value="" style="edgeStyle=orthogonalEdgeStyle;rounded=0;orthogonalLoop=1;jettySize=auto;html=1;fontSize=12;" edge="1" parent="1" source="ndcacQQV9o8B6pBk4h6F-5" target="ndcacQQV9o8B6pBk4h6F-20">
          <mxGeometry relative="1" as="geometry" />
        </mxCell>
        <mxCell id="ndcacQQV9o8B6pBk4h6F-5" value="Cloud" style="ellipse;shape=cloud;whiteSpace=wrap;html=1;align=center;" vertex="1" parent="1">
          <mxGeometry x="210" y="210" width="100" height="60" as="geometry" />
        </mxCell>
        <mxCell id="ndcacQQV9o8B6pBk4h6F-8" value="" style="sketch=0;points=[[0.015,0.015,0],[0.985,0.015,0],[0.985,0.985,0],[0.015,0.985,0],[0.25,0,0],[0.5,0,0],[0.75,0,0],[1,0.25,0],[1,0.5,0],[1,0.75,0],[0.75,1,0],[0.5,1,0],[0.25,1,0],[0,0.75,0],[0,0.5,0],[0,0.25,0]];verticalLabelPosition=bottom;html=1;verticalAlign=top;aspect=fixed;align=center;pointerEvents=1;shape=mxgraph.cisco19.dns_server;fillColor=#005073;strokeColor=none;" vertex="1" parent="1">
          <mxGeometry x="120" y="75" width="27.500000000000004" height="50" as="geometry" />
        </mxCell>
        <mxCell id="ndcacQQV9o8B6pBk4h6F-17" value="" style="edgeStyle=orthogonalEdgeStyle;rounded=0;orthogonalLoop=1;jettySize=auto;html=1;fontSize=12;startArrow=none;" edge="1" parent="1" source="ndcacQQV9o8B6pBk4h6F-18" target="ndcacQQV9o8B6pBk4h6F-16">
          <mxGeometry relative="1" as="geometry">
            <Array as="points">
              <mxPoint x="410" y="240" />
              <mxPoint x="410" y="340" />
              <mxPoint x="543" y="340" />
            </Array>
          </mxGeometry>
        </mxCell>
        <mxCell id="ndcacQQV9o8B6pBk4h6F-19" value="" style="edgeStyle=orthogonalEdgeStyle;rounded=0;orthogonalLoop=1;jettySize=auto;html=1;fontSize=12;" edge="1" parent="1" source="ndcacQQV9o8B6pBk4h6F-14" target="ndcacQQV9o8B6pBk4h6F-18">
          <mxGeometry relative="1" as="geometry" />
        </mxCell>
        <mxCell id="ndcacQQV9o8B6pBk4h6F-14" value="Load Balancer" style="fontColor=#0066CC;verticalAlign=top;verticalLabelPosition=bottom;labelPosition=center;align=center;html=1;outlineConnect=0;fillColor=#CCCCCC;strokeColor=#6881B3;gradientColor=none;gradientDirection=north;strokeWidth=2;shape=mxgraph.networks.load_balancer;direction=south;noLabel=0;movableLabel=0;fontSize=12;labelBackgroundColor=none;labelBorderColor=none;" vertex="1" parent="1">
          <mxGeometry x="390" y="190" width="30" height="100" as="geometry" />
        </mxCell>
        <mxCell id="ndcacQQV9o8B6pBk4h6F-22" value="" style="edgeStyle=orthogonalEdgeStyle;rounded=0;orthogonalLoop=1;jettySize=auto;html=1;fontSize=12;" edge="1" parent="1" source="ndcacQQV9o8B6pBk4h6F-16" target="ndcacQQV9o8B6pBk4h6F-20">
          <mxGeometry relative="1" as="geometry">
            <Array as="points">
              <mxPoint x="410" y="359" />
              <mxPoint x="410" y="420" />
            </Array>
          </mxGeometry>
        </mxCell>
        <mxCell id="ndcacQQV9o8B6pBk4h6F-16" value="Web Server" style="sketch=0;outlineConnect=0;fontColor=#232F3E;gradientColor=none;fillColor=#232F3D;strokeColor=none;dashed=0;verticalLabelPosition=bottom;verticalAlign=top;align=center;html=1;fontSize=12;fontStyle=0;aspect=fixed;pointerEvents=1;shape=mxgraph.aws4.traditional_server;labelBackgroundColor=none;labelBorderColor=none;" vertex="1" parent="1">
          <mxGeometry x="520" y="320" width="45" height="78" as="geometry" />
        </mxCell>
        <mxCell id="ndcacQQV9o8B6pBk4h6F-25" value="" style="edgeStyle=orthogonalEdgeStyle;rounded=0;orthogonalLoop=1;jettySize=auto;html=1;fontSize=12;" edge="1" parent="1" source="ndcacQQV9o8B6pBk4h6F-18" target="ndcacQQV9o8B6pBk4h6F-24">
          <mxGeometry relative="1" as="geometry" />
        </mxCell>
        <mxCell id="ndcacQQV9o8B6pBk4h6F-27" value="" style="edgeStyle=orthogonalEdgeStyle;rounded=0;orthogonalLoop=1;jettySize=auto;html=1;fontSize=12;" edge="1" parent="1" source="ndcacQQV9o8B6pBk4h6F-18" target="ndcacQQV9o8B6pBk4h6F-26">
          <mxGeometry relative="1" as="geometry">
            <Array as="points">
              <mxPoint x="543" y="115" />
            </Array>
          </mxGeometry>
        </mxCell>
        <mxCell id="ndcacQQV9o8B6pBk4h6F-20" value="CDN" style="shape=image;html=1;verticalAlign=top;verticalLabelPosition=bottom;labelBackgroundColor=#ffffff;imageAspect=0;aspect=fixed;image=https://cdn2.iconfinder.com/data/icons/whcompare-isometric-web-hosting-servers/50/connected-globe-128.png;labelBorderColor=none;fontSize=12;" vertex="1" parent="1">
          <mxGeometry x="220" y="390" width="80" height="80" as="geometry" />
        </mxCell>
        <mxCell id="ndcacQQV9o8B6pBk4h6F-24" value="DB Server" style="sketch=0;shadow=0;dashed=0;html=1;strokeColor=none;fillColor=#505050;labelPosition=center;verticalLabelPosition=bottom;verticalAlign=top;outlineConnect=0;align=center;shape=mxgraph.office.databases.database_server;labelBackgroundColor=none;labelBorderColor=none;fontSize=12;" vertex="1" parent="1">
          <mxGeometry x="730" y="201" width="43" height="80" as="geometry" />
        </mxCell>
        <mxCell id="ndcacQQV9o8B6pBk4h6F-26" value="Cache Server&lt;br&gt;" style="verticalLabelPosition=bottom;sketch=0;aspect=fixed;html=1;verticalAlign=top;strokeColor=none;align=center;outlineConnect=0;shape=mxgraph.citrix.cache_server;labelBackgroundColor=none;labelBorderColor=none;fontSize=12;" vertex="1" parent="1">
          <mxGeometry x="714.74" y="75" width="58.26" height="80" as="geometry" />
        </mxCell>
        <mxCell id="ndcacQQV9o8B6pBk4h6F-29" value="" style="strokeColor=#dddddd;shadow=1;strokeWidth=1;rounded=1;absoluteArcSize=1;arcSize=2;labelBackgroundColor=none;labelBorderColor=none;fontSize=12;" vertex="1" parent="1">
          <mxGeometry x="80.75" y="390" width="106" height="50" as="geometry" />
        </mxCell>
        <mxCell id="ndcacQQV9o8B6pBk4h6F-30" value="Firebase" style="sketch=0;dashed=0;connectable=0;html=1;fillColor=#5184F3;strokeColor=none;shape=mxgraph.gcp2.firebase;part=1;labelPosition=right;verticalLabelPosition=middle;align=left;verticalAlign=middle;spacingLeft=5;fontColor=#999999;fontSize=12;labelBackgroundColor=none;labelBorderColor=none;" vertex="1" parent="ndcacQQV9o8B6pBk4h6F-29">
          <mxGeometry width="32.4" height="45" relative="1" as="geometry">
            <mxPoint x="5" y="7" as="offset" />
          </mxGeometry>
        </mxCell>
        <mxCell id="ndcacQQV9o8B6pBk4h6F-32" value="Client" style="shape=umlActor;verticalLabelPosition=bottom;verticalAlign=top;html=1;outlineConnect=0;labelBackgroundColor=none;labelBorderColor=none;fontSize=12;" vertex="1" parent="1">
          <mxGeometry x="119" y="210" width="30" height="60" as="geometry" />
        </mxCell>
        <mxCell id="ndcacQQV9o8B6pBk4h6F-35" value="" style="edgeStyle=orthogonalEdgeStyle;rounded=0;orthogonalLoop=1;jettySize=auto;html=1;fontSize=12;endArrow=none;" edge="1" parent="1" source="ndcacQQV9o8B6pBk4h6F-14" target="ndcacQQV9o8B6pBk4h6F-18">
          <mxGeometry relative="1" as="geometry">
            <mxPoint x="420" y="240" as="sourcePoint" />
            <mxPoint x="542.5" y="370.16347699909795" as="targetPoint" />
          </mxGeometry>
        </mxCell>
        <mxCell id="ndcacQQV9o8B6pBk4h6F-18" value="App Core Server" style="sketch=0;outlineConnect=0;fontColor=#232F3E;gradientColor=none;fillColor=#232F3D;strokeColor=none;dashed=0;verticalLabelPosition=bottom;verticalAlign=top;align=center;html=1;fontSize=12;fontStyle=0;aspect=fixed;pointerEvents=1;shape=mxgraph.aws4.traditional_server;labelBackgroundColor=none;labelBorderColor=none;" vertex="1" parent="1">
          <mxGeometry x="520" y="201" width="45" height="78" as="geometry" />
        </mxCell>
        <mxCell id="ndcacQQV9o8B6pBk4h6F-36" value="" style="rounded=0;whiteSpace=wrap;html=1;labelBackgroundColor=none;labelBorderColor=none;fontSize=12;fillColor=#b1ddf0;dashed=1;strokeColor=#10739e;opacity=20;" vertex="1" parent="1">
          <mxGeometry x="482.5" y="100" width="120" height="360" as="geometry" />
        </mxCell>
      </root>
    </mxGraphModel>
  </diagram>
</mxfile>
